<svg id="visual" viewBox="0 0 900 600" width="900" height="600" xmlns="http://www.w3.org/2000/svg" xmlns:xlink="http://www.w3.org/1999/xlink" version="1.1"><rect x="0" y="0" width="900" height="600" fill="#8E43F0"></rect><path d="M0 246L21.5 241.7C43 237.3 86 228.7 128.8 214.8C171.7 201 214.3 182 257.2 179.5C300 177 343 191 385.8 200.7C428.7 210.3 471.3 215.7 514.2 206.3C557 197 600 173 642.8 176.5C685.7 180 728.3 211 771.2 223.5C814 236 857 230 878.5 227L900 224L900 0L878.5 0C857 0 814 0 771.2 0C728.3 0 685.7 0 642.8 0C600 0 557 0 514.2 0C471.3 0 428.7 0 385.8 0C343 0 300 0 257.2 0C214.3 0 171.7 0 128.8 0C86 0 43 0 21.5 0L0 0Z" fill="#a143f0"></path><path d="M0 189L21.5 186.8C43 184.7 86 180.3 128.8 175.3C171.7 170.3 214.3 164.7 257.2 156C300 147.3 343 135.7 385.8 139.2C428.7 142.7 471.3 161.3 514.2 170.5C557 179.7 600 179.3 642.8 169.7C685.7 160 728.3 141 771.2 140C814 139 857 156 878.5 164.5L900 173L900 0L878.5 0C857 0 814 0 771.2 0C728.3 0 685.7 0 642.8 0C600 0 557 0 514.2 0C471.3 0 428.7 0 385.8 0C343 0 300 0 257.2 0C214.3 0 171.7 0 128.8 0C86 0 43 0 21.5 0L0 0Z" fill="#b13ff0"></path><path d="M0 152L21.5 146.5C43 141 86 130 128.8 120.2C171.7 110.3 214.3 101.7 257.2 104.3C300 107 343 121 385.8 122.2C428.7 123.3 471.3 111.7 514.2 110.5C557 109.3 600 118.7 642.8 123.7C685.7 128.7 728.3 129.3 771.2 133C814 136.7 857 143.3 878.5 146.7L900 150L900 0L878.5 0C857 0 814 0 771.2 0C728.3 0 685.7 0 642.8 0C600 0 557 0 514.2 0C471.3 0 428.7 0 385.8 0C343 0 300 0 257.2 0C214.3 0 171.7 0 128.8 0C86 0 43 0 21.5 0L0 0Z" fill="#c03bf0"></path><path d="M0 85L21.5 82.3C43 79.7 86 74.3 128.8 75.5C171.7 76.7 214.3 84.3 257.2 90.5C300 96.7 343 101.3 385.8 103.5C428.7 105.7 471.3 105.3 514.2 106.7C557 108 600 111 642.8 107.2C685.7 103.3 728.3 92.7 771.2 84.3C814 76 857 70 878.5 67L900 64L900 0L878.5 0C857 0 814 0 771.2 0C728.3 0 685.7 0 642.8 0C600 0 557 0 514.2 0C471.3 0 428.7 0 385.8 0C343 0 300 0 257.2 0C214.3 0 171.7 0 128.8 0C86 0 43 0 21.5 0L0 0Z" fill="#cf36f0"></path><path d="M0 62L21.5 63.2C43 64.3 86 66.7 128.8 66C171.7 65.3 214.3 61.7 257.2 55C300 48.3 343 38.7 385.8 36.5C428.7 34.3 471.3 39.7 514.2 42.2C557 44.7 600 44.3 642.8 44.7C685.7 45 728.3 46 771.2 49C814 52 857 57 878.5 59.5L900 62L900 0L878.5 0C857 0 814 0 771.2 0C728.3 0 685.7 0 642.8 0C600 0 557 0 514.2 0C471.3 0 428.7 0 385.8 0C343 0 300 0 257.2 0C214.3 0 171.7 0 128.8 0C86 0 43 0 21.5 0L0 0Z" fill="#de30ef"></path></svg>